<mxfile host="app.diagrams.net" modified="2024-07-16T12:57:50.775Z" agent="Mozilla/5.0 (Windows NT 10.0; Win64; x64) AppleWebKit/537.36 (KHTML, like Gecko) Chrome/126.0.0.0 Safari/537.36" version="24.6.5" etag="W5IoJkQaCc6xoYQjp2SV" type="github">
  <diagram name="Trang-1" id="eKk82Nck7_SQUNrV1nml">
    <mxGraphModel>
      <root>
        <mxCell id="0" />
        <mxCell id="1" parent="0" />
      </root>
    </mxGraphModel>
  </diagram>
</mxfile>
